<!DOCTYPE svg PUBLIC "-//W3C//DTD SVG 1.1//EN" "http://www.w3.org/Graphics/SVG/1.1/DTD/svg11.dtd">

<!-- Uploaded to: SVG Repo, www.svgrepo.com, Transformed by: SVG Repo Mixer Tools -->
<svg height="100%" width="100%" version="1.1" id="Layer_1" xmlns="http://www.w3.org/2000/svg" xmlns:xlink="http://www.w3.org/1999/xlink" viewBox="0 0 473.654 473.654" xml:space="preserve" fill="#000000" stroke="#000000">

<g id="SVGRepo_bgCarrier" stroke-width="0"/>

<g id="SVGRepo_tracerCarrier" stroke-linecap="round" stroke-linejoin="round"/>

<g id="SVGRepo_iconCarrier">  <path style="fill:#FFFFFF;" d="M143.386,111.189c27.011-17.31,54.018-34.625,81.029-51.939c2.891-1.855,5.688-1.249,7.632,0.471 c1.687,1.088,2.887,2.921,2.887,5.55c0,11.286,0,22.572,0,33.858c81.47,3.841,145.372,69.122,146.958,151.221 c1.608,83.594-70.248,149.852-151.415,151.415c-25.336,0.49-25.291-38.783,0-39.266c62.073-1.197,110.953-50.077,112.15-112.15 c1.167-60.54-49.288-108.534-107.692-111.955c0,10.25,0,20.5,0,30.751c0,5.172-5.987,9.035-10.564,6.099 c-27.011-17.31-54.018-34.625-81.029-51.939C138.794,120.396,138.869,114.087,143.386,111.189z"/> </g>

</svg>