<!DOCTYPE svg PUBLIC "-//W3C//DTD SVG 1.1//EN" "http://www.w3.org/Graphics/SVG/1.1/DTD/svg11.dtd">
<!-- Uploaded to: SVG Repo, www.svgrepo.com, Transformed by: SVG Repo Mixer Tools -->
<svg fill="#ffffff" version="1.1" id="Capa_1" xmlns="http://www.w3.org/2000/svg" xmlns:xlink="http://www.w3.org/1999/xlink" width="800px" height="800px" viewBox="0 0 49.078 49.077" xml:space="preserve">
<g id="SVGRepo_bgCarrier" stroke-width="0"/>
<g id="SVGRepo_tracerCarrier" stroke-linecap="round" stroke-linejoin="round"/>
<g id="SVGRepo_iconCarrier"> <g> <path d="M48.917,24.373c0-13.116-10.415-23.839-23.408-24.349C25.193,0.009,24.874,0,24.555,0c-0.002,0-0.005,0-0.007,0 c-0.001,0-0.002,0-0.004,0c-0.005,0-0.012,0-0.018,0c-0.303,0.001-0.604,0.01-0.904,0.023c-13.013,0.487-23.45,11.22-23.45,24.35 c0,0.084,0.005,0.166,0.006,0.25c-0.003,0.043-0.018,0.083-0.018,0.126c0,0.062,0.018,0.12,0.025,0.18 c0.261,11.549,8.585,21.14,19.556,23.342c1.389,0.545,3.297,0.806,5.201,0.806c2.303,0,4.617-0.378,6.001-1.187 c4.093-1.115,7.76-3.271,10.697-6.166c0.012-0.012,0.024-0.022,0.037-0.035C46.144,37.268,48.917,31.141,48.917,24.373z M39.976,40.553c-1.517,0.976-6.824,2.303-15.034,2.303c-9.492,0-15.116-1.775-15.47-2.651c0.354-0.953,5.978-2.729,15.47-2.729 c9.493,0,15.116,1.776,15.469,2.653c-0.002,0.005-0.01,0.011-0.01,0.017C40.261,40.282,40.118,40.416,39.976,40.553z M24.543,46.748c-1.456,0-2.879-0.145-4.259-0.411c-0.231-0.099-0.414-0.194-0.525-0.278c0.511-0.379,2.28-1.018,5.183-1.018 c2.875,0,4.635,0.626,5.165,1.007C28.328,46.505,26.463,46.748,24.543,46.748z M17.699,45.673 c-1.452-0.468-2.838-1.081-4.144-1.821c1.529,0.317,3.218,0.547,4.911,0.705C18.072,44.875,17.8,45.245,17.699,45.673z M3.316,31.428c-0.467-1.4-0.798-2.861-0.979-4.369c1.736,0.795,4.338,1.353,7.166,1.742C6.617,29.371,4.221,30.208,3.316,31.428z M2.901,18.697c1.28,0.929,3.565,1.591,6.187,2.061c-2.708,0.393-5.179,0.943-6.831,1.717C2.366,21.182,2.582,19.919,2.901,18.697z M24.698,2.004c2.813,0.021,4.536,0.641,5.039,1.014c-0.511,0.38-2.28,1.018-5.183,1.018c-2.903,0-4.671-0.638-5.183-1.018 c0.512-0.38,2.279-1.017,5.178-1.018C24.6,2,24.647,2.004,24.698,2.004z M39.588,28.796c2.83-0.392,5.433-0.95,7.164-1.748 c-0.181,1.505-0.51,2.962-0.974,4.359C44.862,30.197,42.468,29.364,39.588,28.796z M24.556,27.559 c-0.227,0-1.771,0.004-3.932,0.092C9.223,27.338,3.131,25.708,2.222,24.749c0.913-0.961,7.032-2.596,18.483-2.903 c1.967,0.07,3.347,0.074,3.563,0.074c0.225,0,1.699-0.004,3.789-0.082c11.646,0.286,17.865,1.941,18.787,2.911 c-0.91,0.958-6.99,2.586-18.373,2.901C26.318,27.561,24.782,27.559,24.556,27.559z M44.693,16.961 c-0.739,0.979-6.543,2.548-16.467,2.89c-1.816-0.053-3.178-0.06-3.694-0.06c-0.543,0-2.006,0.007-3.96,0.066 C10.49,19.535,4.589,17.948,3.844,16.961c0.834-1.103,8.082-2.958,20.424-2.958C36.609,14.003,43.859,15.858,44.693,16.961z M39.685,20.716c2.858-0.529,5.287-1.294,6.395-2.394c0.378,1.342,0.633,2.733,0.753,4.163 C45.122,21.678,42.519,21.112,39.685,20.716z M36.759,12.755c2.42-0.521,4.391-1.259,5.301-2.279 c1.024,1.291,1.918,2.694,2.643,4.193C42.823,13.752,39.857,13.15,36.759,12.755z M31.82,3.221 c1.707,0.589,3.318,1.378,4.812,2.341c-1.814-0.383-3.869-0.646-5.914-0.816C31.347,4.34,31.746,3.834,31.82,3.221z M18.347,4.717 c-1.954,0.153-3.933,0.389-5.715,0.732c1.449-0.916,3.01-1.669,4.657-2.235C17.358,3.815,17.741,4.314,18.347,4.717z M8.42,8.887 c1.375-1.001,6.938-2.405,15.933-2.405c9.88,0,15.64,1.696,16.231,2.689c-0.591,0.994-6.348,2.692-16.231,2.692 c-9.836,0-15.581-1.682-16.219-2.678C8.228,9.085,8.325,8.986,8.42,8.887z M11.888,12.742c-2.771,0.349-5.443,0.86-7.341,1.615 c0.654-1.299,1.43-2.525,2.313-3.665C7.833,11.594,9.669,12.26,11.888,12.742z M20.427,29.637c2.026,0.064,3.55,0.071,4.105,0.071 c0.559,0,2.091-0.008,4.128-0.071c9.408,0.361,14.857,1.916,15.503,2.881c-0.735,1.095-7.687,2.957-19.607,2.957 c-11.923,0-18.872-1.862-19.608-2.957C5.592,31.555,11.032,30.001,20.427,29.637z M37.101,36.648 c2.867-0.403,5.562-1.008,7.261-1.909c-0.74,1.411-1.625,2.735-2.64,3.948C40.836,37.799,39.154,37.137,37.101,36.648z M4.718,34.723c1.793,0.963,4.713,1.59,7.775,1.996c-2.266,0.563-4.04,1.356-4.717,2.444C6.587,37.816,5.56,36.327,4.718,34.723z M32.101,45.432c-0.133-0.326-0.367-0.617-0.684-0.875c1.264-0.119,2.523-0.275,3.721-0.479 C34.166,44.602,33.15,45.055,32.101,45.432z"/> </g> </g>
</svg>