<!DOCTYPE svg PUBLIC "-//W3C//DTD SVG 1.1//EN" "http://www.w3.org/Graphics/SVG/1.1/DTD/svg11.dtd">

<!-- Uploaded to: SVG Repo, www.svgrepo.com, Transformed by: SVG Repo Mixer Tools -->
<svg height="100%" width="100%" version="1.1" id="Layer_1" xmlns="http://www.w3.org/2000/svg" xmlns:xlink="http://www.w3.org/1999/xlink" viewBox="0 0 473.654 473.654" xml:space="preserve" fill="#000000" stroke="#000000">

<g id="SVGRepo_bgCarrier" stroke-width="0"/>

<g id="SVGRepo_tracerCarrier" stroke-linecap="round" stroke-linejoin="round"/>

<g id="SVGRepo_iconCarrier">  <g> <path style="fill:#FFFFFF;" d="M403.253,225.029c-17.999-17.999-35.993-35.993-53.992-53.992 c-12.778-12.782-32.542,7.128-19.726,19.939c9.996,9.996,19.992,19.992,29.988,29.988c-32.235,0-64.47,0-96.705,0 c-18.111,0-18.272,28.054-0.202,28.054c32.306,0,64.612,0,96.919,0c-10.033,10.033-20.07,20.067-30.104,30.1 c-12.782,12.778,7.128,32.538,19.939,19.726c17.999-17.995,35.993-35.99,53.992-53.984 C408.78,239.441,408.634,230.406,403.253,225.029z"/> <path style="fill:#FFFFFF;" d="M212.382,225.014c-17.999-17.999-35.993-35.99-53.992-53.984 c-12.782-12.782-32.542,7.128-19.726,19.939c10,10,19.999,19.995,29.995,29.995c-32.239,0-64.474,0-96.713,0 c-18.111,0-18.272,28.054-0.202,28.054c32.302,0,64.605,0,96.907,0c-10.033,10.033-20.063,20.067-30.096,30.1 c-12.782,12.782,7.128,32.542,19.939,19.726c17.999-17.999,35.993-35.997,53.992-53.996 C217.909,239.422,217.763,230.391,212.382,225.014z"/> </g> </g>

</svg>