<!DOCTYPE svg PUBLIC "-//W3C//DTD SVG 1.1//EN" "http://www.w3.org/Graphics/SVG/1.1/DTD/svg11.dtd">

<!-- Uploaded to: SVG Repo, www.svgrepo.com, Transformed by: SVG Repo Mixer Tools -->
<svg height="100%" width="100%" version="1.1" id="Layer_1" xmlns="http://www.w3.org/2000/svg" xmlns:xlink="http://www.w3.org/1999/xlink" viewBox="0 0 473.654 473.654" xml:space="preserve" fill="#000000" stroke="#000000" transform="rotate(45)">

<g id="SVGRepo_bgCarrier" stroke-width="0"/>

<g id="SVGRepo_tracerCarrier" stroke-linecap="round" stroke-linejoin="round"/>

<g id="SVGRepo_iconCarrier">  <path style="fill:#FFFFFF;" d="M392.263,207.973c-75.794,0-151.58,0-227.377,0c0-17.625,0-35.249,0-52.874 c0-12.329-15.257-18.705-23.997-9.966c-27.011,27.011-54.018,54.022-81.029,81.033c-5.422,5.422-5.277,14.453,0.105,19.835 c27.011,27.007,54.018,54.014,81.029,81.025c4.693,4.693,10.321,4.955,14.936,2.801c0.093-0.03,0.187-0.075,0.277-0.105 c0.011-0.004,0.022-0.007,0.034-0.015c4.817-1.716,8.646-5.882,8.646-12.55c0-17.692,0-35.388,0-53.08c75.655,0,151.314,0,226.973,0 C428.084,264.077,428.402,207.973,392.263,207.973z"/> </g>

</svg>