<!DOCTYPE svg PUBLIC "-//W3C//DTD SVG 1.1//EN" "http://www.w3.org/Graphics/SVG/1.1/DTD/svg11.dtd">
<!-- Uploaded to: SVG Repo, www.svgrepo.com, Transformed by: SVG Repo Mixer Tools -->
<svg fill="#ffffff" version="1.1" id="Capa_1" xmlns="http://www.w3.org/2000/svg" xmlns:xlink="http://www.w3.org/1999/xlink" width="800px" height="800px" viewBox="-36.11 -36.11 674.02 674.02" xml:space="preserve" transform="rotate(-45)">
<g id="SVGRepo_bgCarrier" stroke-width="0"/>
<g id="SVGRepo_tracerCarrier" stroke-linecap="round" stroke-linejoin="round" stroke="#CCCCCC" stroke-width="1.203602"/>
<g id="SVGRepo_iconCarrier"> <g> <g> <path d="M300.9,0C134.717,0,0.001,134.716,0.001,300.898c0,166.186,134.716,300.902,300.899,300.902 c166.183,0,300.9-134.717,300.9-300.898C601.798,134.719,467.083,0,300.9,0z M300.9,555.901 c-140.607,0-254.999-114.393-254.999-254.999C45.901,160.295,160.293,45.9,300.9,45.9s255,114.395,255,255.002 C555.899,441.509,441.507,555.901,300.9,555.901z"/> <path d="M300.9,169.322c6.759,0,12.24-5.48,12.24-12.24v-64.26c0-6.759-5.48-12.24-12.24-12.24c-6.76,0-12.24,5.48-12.24,12.24 v64.26C288.66,163.841,294.14,169.322,300.9,169.322z"/> <path d="M443.7,287.64c-6.76,0-12.24,5.48-12.24,12.24s5.48,12.24,12.24,12.24h64.26c6.76,0,12.24-5.48,12.24-12.24 s-5.48-12.24-12.24-12.24H443.7z"/> <path d="M156.061,314.161c6.759,0,12.24-5.48,12.24-12.24s-5.48-12.24-12.24-12.24h-64.26c-6.692,0-12.111,5.376-12.218,12.042 c0,0.177,0.012,0.352,0.012,0.529c0.18,6.603,5.56,11.909,12.206,11.909H156.061L156.061,314.161z"/> <path d="M408.79,193.435c2.387,2.39,5.523,3.586,8.652,3.586c3.131,0,6.268-1.196,8.654-3.586l30.291-30.291 c4.779-4.779,4.779-12.53,0-17.307c-4.777-4.78-12.533-4.78-17.307,0l-30.291,30.291 C404.007,180.904,404.007,188.655,408.79,193.435z"/> <path d="M426.097,408.366c-4.777-4.78-12.527-4.78-17.307,0c-4.781,4.779-4.781,12.53,0,17.308l30.291,30.294 c2.387,2.39,5.523,3.586,8.652,3.586c3.131,0,6.264-1.196,8.654-3.586c4.779-4.78,4.779-12.531,0-17.308L426.097,408.366z"/> <path d="M190.969,408.366c-4.78-4.78-12.534-4.78-17.307,0l-30.291,30.294c-4.78,4.779-4.78,12.53,0,17.308 c2.39,2.39,5.523,3.586,8.654,3.586s6.267-1.196,8.653-3.586l30.291-30.294C195.752,420.896,195.752,413.146,190.969,408.366z"/> <path d="M173.662,193.435c2.387,2.39,5.523,3.586,8.654,3.586s6.267-1.196,8.653-3.586c4.78-4.78,4.78-12.531,0-17.307 l-30.291-30.291c-4.776-4.78-12.534-4.78-17.307,0c-4.78,4.78-4.78,12.531,0,17.307L173.662,193.435z"/> <path d="M364.407,155.448c0.795,0.349,1.625,0.514,2.441,0.514c2.359,0,4.611-1.374,5.613-3.678l17.119-39.272 c1.35-3.097-0.064-6.701-3.164-8.054c-3.1-1.365-6.703,0.064-8.053,3.164l-17.121,39.272 C359.89,150.491,361.308,154.095,364.407,155.448z"/> <path d="M493.476,377.512l-39.27-17.12c-3.1-1.362-6.705,0.064-8.055,3.164c-1.35,3.097,0.064,6.701,3.164,8.054l39.27,17.121 c0.795,0.349,1.625,0.514,2.441,0.514c2.359,0,4.611-1.374,5.613-3.678C497.989,382.47,496.571,378.864,493.476,377.512z"/> <path d="M106.284,224.289l39.272,17.121c0.795,0.349,1.625,0.514,2.442,0.514c2.359,0,4.611-1.374,5.612-3.678 c1.35-3.097-0.064-6.701-3.164-8.054l-39.272-17.121c-3.1-1.365-6.705,0.064-8.054,3.164 C101.771,219.332,103.187,222.936,106.284,224.289z"/> <path d="M448.354,243.677c0.949,2.411,3.254,3.886,5.699,3.886c0.742,0,1.498-0.138,2.232-0.428l39.875-15.661 c3.143-1.233,4.695-4.786,3.459-7.935c-1.234-3.146-4.781-4.697-7.936-3.458l-39.875,15.661 C448.671,236.976,447.118,240.531,448.354,243.677z"/> <path d="M151.404,358.124c-1.233-3.143-4.783-4.7-7.935-3.458l-39.875,15.664c-3.146,1.233-4.694,4.786-3.458,7.935 c0.949,2.411,3.253,3.887,5.698,3.887c0.744,0,1.5-0.138,2.234-0.429l39.875-15.664 C151.091,364.825,152.64,361.272,151.404,358.124z"/> <path d="M232.824,149.713c0.948,2.411,3.252,3.886,5.698,3.886c0.743,0,1.499-0.138,2.233-0.428 c3.146-1.233,4.694-4.786,3.458-7.935l-15.664-39.875c-1.233-3.146-4.78-4.697-7.935-3.458c-3.146,1.233-4.694,4.786-3.458,7.935 L232.824,149.713z"/> <path d="M332.29,145.114c0.406,0.08,0.812,0.119,1.211,0.119c2.855,0,5.41-2.004,5.994-4.911l8.459-41.999 c0.666-3.314-1.479-6.539-4.793-7.206c-3.305-0.655-6.541,1.475-7.205,4.792l-8.461,41.995 C326.831,141.219,328.976,144.444,332.29,145.114z"/> <path d="M505.274,334.975l-41.998-8.457c-3.309-0.661-6.543,1.475-7.207,4.792c-0.668,3.313,1.479,6.539,4.793,7.206l41.998,8.461 c0.406,0.079,0.814,0.119,1.211,0.119c2.855,0,5.41-2.004,5.994-4.911C510.733,338.867,508.589,335.646,505.274,334.975z"/> <path d="M94.484,266.826l41.999,8.458c0.407,0.08,0.814,0.119,1.212,0.119c2.855,0,5.41-2.004,5.995-4.911 c0.667-3.314-1.478-6.54-4.792-7.207l-41.999-8.458c-3.311-0.658-6.542,1.475-7.207,4.792 C89.025,262.934,91.17,266.156,94.484,266.826z"/> <path d="M432.954,213.658c1.182,1.772,3.125,2.732,5.104,2.732c1.164,0,2.342-0.33,3.383-1.022l35.672-23.715 c2.816-1.873,3.58-5.673,1.711-8.485c-1.869-2.809-5.666-3.574-8.484-1.71l-35.674,23.715 C431.849,207.045,431.085,210.843,432.954,213.658z"/> <path d="M166.808,388.143c-1.87-2.812-5.664-3.577-8.485-1.711l-35.677,23.719c-2.815,1.872-3.58,5.673-1.71,8.485 c1.181,1.771,3.125,2.732,5.104,2.732c1.163,0,2.341-0.331,3.381-1.022l35.677-23.718 C167.912,394.755,168.677,390.958,166.808,388.143z"/> <path d="M202.454,167.247c1.181,1.772,3.124,2.733,5.104,2.733c1.163,0,2.341-0.331,3.381-1.022 c2.815-1.873,3.58-5.673,1.71-8.485l-23.718-35.677c-1.87-2.809-5.667-3.574-8.485-1.71c-2.815,1.873-3.581,5.673-1.711,8.485 L202.454,167.247z"/> <path d="M391.849,171.045c1.068,0.743,2.289,1.102,3.502,1.102c1.934,0,3.834-0.912,5.023-2.613l24.535-35.12 c1.938-2.77,1.258-6.585-1.512-8.522c-2.77-1.934-6.588-1.258-8.521,1.511l-24.535,35.12 C388.401,165.295,389.077,169.111,391.849,171.045z"/> <path d="M474.542,414.217l-35.119-24.535c-2.77-1.934-6.588-1.258-8.521,1.512c-1.938,2.77-1.258,6.585,1.512,8.522l35.119,24.535 c1.068,0.743,2.289,1.102,3.5,1.102c1.934,0,3.834-0.912,5.025-2.613C477.991,419.97,477.312,416.153,474.542,414.217z"/> <path d="M125.216,187.584l35.12,24.535c1.068,0.744,2.289,1.102,3.5,1.102c1.934,0,3.834-0.912,5.024-2.613 c1.937-2.77,1.258-6.585-1.512-8.522l-35.12-24.535c-2.769-1.934-6.588-1.258-8.522,1.512 C121.768,181.831,122.447,185.647,125.216,187.584z"/> <path d="M456.733,274.112c0.525,2.968,3.105,5.049,6.02,5.049c0.352,0,0.713-0.031,1.076-0.095l42.182-7.485 c3.33-0.587,5.545-3.764,4.955-7.093c-0.588-3.326-3.752-5.56-7.094-4.954l-42.182,7.485 C458.358,267.606,456.14,270.782,456.733,274.112z"/> <path d="M143.028,327.692c-0.594-3.323-3.746-5.545-7.096-4.957l-42.179,7.481c-3.327,0.591-5.545,3.767-4.958,7.096 c0.529,2.966,3.109,5.05,6.022,5.05c0.352,0,0.713-0.031,1.077-0.092l42.179-7.482 C141.397,334.198,143.619,331.021,143.028,327.692z"/> <path d="M263.99,139.447c0.526,2.968,3.106,5.049,6.019,5.049c0.352,0,0.713-0.03,1.077-0.095 c3.329-0.587,5.544-3.764,4.954-7.093l-7.485-42.179c-0.587-3.326-3.742-5.56-7.093-4.954c-3.329,0.588-5.544,3.764-4.954,7.093 L263.99,139.447z"/> <path d="M320.683,365.964l-21.2-134.264l-19.676,134.529c7.001-1.667,14.055-2.555,21.093-2.555 C307.491,363.675,314.106,364.477,320.683,365.964z"/> <path d="M322.751,379.055c-7.086-2.023-14.389-3.137-21.851-3.137c-7.874,0-15.563,1.239-23.014,3.461 c-45.141,13.451-81.207,64.141-92.819,110.04c33.721,20.793,73.394,32.822,115.833,32.822s82.109-12.029,115.828-32.822 C404.991,443.636,368.409,392.084,322.751,379.055z"/> </g> </g> </g>
</svg>