<svg width="25" height="26" viewBox="0 0 25 26" fill="none" xmlns="http://www.w3.org/2000/svg">
<path d="M12.6385 14.4536V22.6597C12.6385 22.9317 12.5331 23.1926 12.3456 23.385C12.1581 23.5774 11.9037 23.6854 11.6385 23.6854C11.3733 23.6854 11.1189 23.5774 10.9314 23.385C10.7439 23.1926 10.6385 22.9317 10.6385 22.6597V16.9308L2.34599 25.4369C2.25308 25.5322 2.14278 25.6078 2.02139 25.6594C1.9 25.711 1.76989 25.7375 1.6385 25.7375C1.5071 25.7375 1.37699 25.711 1.2556 25.6594C1.13421 25.6078 1.02391 25.5322 0.930996 25.4369C0.838086 25.3416 0.764384 25.2285 0.714102 25.104C0.663819 24.9794 0.637939 24.846 0.637939 24.7112C0.637939 24.5764 0.663819 24.443 0.714102 24.3184C0.764384 24.1939 0.838086 24.0808 0.930996 23.9855L9.2235 15.4794H3.6385C3.37328 15.4794 3.11893 15.3713 2.93139 15.1789C2.74385 14.9866 2.6385 14.7256 2.6385 14.4536C2.6385 14.1815 2.74385 13.9206 2.93139 13.7283C3.11893 13.5359 3.37328 13.4278 3.6385 13.4278H11.6385C11.9037 13.4278 12.1581 13.5359 12.3456 13.7283C12.5331 13.9206 12.6385 14.1815 12.6385 14.4536ZM7 0C7 0 4.6385 0 4.6385 2.99988V5V6V8V9.32479C4.6385 9.59684 4.74385 9.85774 4.93139 10.0501C5.11893 10.2425 5.37328 10.3505 5.6385 10.3505C5.90371 10.3505 6.15807 10.2425 6.3456 10.0501C6.53314 9.85774 6.6385 9.59684 6.6385 9.32479V1.99988H22.5L22.6385 19.5824H16.6385C16.3733 19.5824 16.1189 19.6905 15.9314 19.8828C15.7439 20.0752 15.6385 20.3361 15.6385 20.6082C15.6385 20.8802 15.7439 21.1411 15.9314 21.3335C16.1189 21.5259 16.3733 21.6339 16.6385 21.6339H22.6385C23.1689 21.6339 23.6776 21.4178 24.0527 21.033C24.4278 20.6483 24.6385 20.1265 24.6385 19.5824L24.5 2.99988C24.5 0 22 0 22 0H7Z" fill="white"/>
</svg>
