<svg width="23" height="25" viewBox="0 0 23 25" fill="none" xmlns="http://www.w3.org/2000/svg">
<path d="M23 9.51286C23 9.7849 22.899 10.0458 22.7193 10.2382C22.5396 10.4305 22.2958 10.5386 22.0417 10.5386C21.7875 10.5386 21.5437 10.4305 21.364 10.2382C21.1843 10.0458 21.0833 9.7849 21.0833 9.51286V3.78398L13.1376 12.2901C12.9577 12.4826 12.7138 12.5907 12.4595 12.5907C12.2052 12.5907 11.9613 12.4826 11.7815 12.2901C11.6017 12.0976 11.5007 11.8366 11.5007 11.5644C11.5007 11.2922 11.6017 11.0311 11.7815 10.8387L19.7273 2.33253H14.375C14.1208 2.33253 13.8771 2.22446 13.6974 2.03209C13.5176 1.83972 13.4167 1.57882 13.4167 1.30677C13.4167 1.03472 13.5176 0.773812 13.6974 0.581445C13.8771 0.389077 14.1208 0.281006 14.375 0.281006H22.0417C22.2958 0.281006 22.5396 0.389077 22.7193 0.581445C22.899 0.773812 23 1.03472 23 1.30677V9.51286ZM18.2083 12.5901C17.9542 12.5901 17.7104 12.6982 17.5307 12.8906C17.351 13.0829 17.25 13.3439 17.25 13.6159V22.8478H1.91667V6.43557H10.5417C10.7958 6.43557 11.0396 6.3275 11.2193 6.13513C11.399 5.94277 11.5 5.68186 11.5 5.40981C11.5 5.13776 11.399 4.87686 11.2193 4.68449C11.0396 4.49212 10.7958 4.38405 10.5417 4.38405H1.91667C1.40834 4.38405 0.920823 4.60019 0.561379 4.98493C0.201934 5.36966 0 5.89148 0 6.43557V22.8478C0 23.3918 0.201934 23.9137 0.561379 24.2984C0.920823 24.6831 1.40834 24.8993 1.91667 24.8993H17.25C17.7583 24.8993 18.2458 24.6831 18.6053 24.2984C18.9647 23.9137 19.1667 23.3918 19.1667 22.8478V13.6159C19.1667 13.3439 19.0657 13.0829 18.886 12.8906C18.7063 12.6982 18.4625 12.5901 18.2083 12.5901Z" fill="white"/>
</svg>
