<svg width="26" height="27" viewBox="0 0 26 27" fill="none" xmlns="http://www.w3.org/2000/svg">
    <path d="M25.3467 5.93335C25.286 5.77956 25.1899 5.64316 25.0666 5.53584C24.9433 5.42852 24.7964 5.35349 24.6386 5.31718C24.4808 5.28087 24.3167 5.28437 24.1605 5.32737C24.0043 5.37037 23.8606 5.4516 23.7417 5.56408L18.7042 10.3326L16.5505 9.85817L16.088 7.64894L20.7367 2.48167C20.8464 2.35972 20.9255 2.21231 20.9675 2.05208C21.0094 1.89185 21.0128 1.72358 20.9774 1.5617C20.942 1.39982 20.8689 1.24917 20.7642 1.12265C20.6596 0.996139 20.5266 0.897542 20.3767 0.83532C19.0104 0.268373 17.5292 0.0543095 16.0634 0.211937C14.5975 0.369565 13.1918 0.89406 11.9698 1.73934C10.7478 2.58461 9.74689 3.7248 9.055 5.05972C8.36311 6.39464 8.00142 7.88344 8.00171 9.3953C8.00009 10.672 8.25542 11.9352 8.75171 13.106L1.22546 19.7811C1.20671 19.7965 1.18921 19.8145 1.17171 19.8311C0.421475 20.6007 0 21.6444 0 22.7328C0 23.2716 0.103475 23.8052 0.304517 24.3031C0.505558 24.801 0.80023 25.2533 1.17171 25.6344C1.54318 26.0154 1.98419 26.3177 2.46955 26.5239C2.95491 26.7301 3.47511 26.8363 4.00046 26.8363C5.06144 26.8363 6.07898 26.4039 6.82921 25.6344C6.84546 25.6177 6.86296 25.5985 6.87796 25.5805L13.3842 17.8578C14.7547 18.4749 16.2537 18.7317 17.7453 18.6048C19.237 18.478 20.6742 17.9715 21.927 17.1313C23.1797 16.2911 24.2084 15.1437 24.9199 13.7929C25.6314 12.4421 26.0032 10.9306 26.0017 9.3953C26.0037 8.20873 25.7812 7.03303 25.3467 5.93335ZM17.0017 16.5756C15.818 16.574 14.654 16.2652 13.618 15.6781C13.4172 15.5643 13.1845 15.5248 12.9587 15.5661C12.733 15.6074 12.5279 15.7271 12.378 15.905L5.39046 24.206C5.01233 24.5745 4.50883 24.7769 3.98731 24.77C3.46579 24.7632 2.9675 24.5476 2.5987 24.1693C2.2299 23.791 2.01975 23.2799 2.01308 22.745C2.0064 22.21 2.20372 21.6935 2.56296 21.3057L10.6492 14.1394C10.823 13.9855 10.9398 13.775 10.9801 13.5431C11.0204 13.3113 10.9817 13.0722 10.8705 12.8662C10.233 11.6836 9.93383 10.3404 10.0074 8.99112C10.0809 7.64185 10.5242 6.34125 11.2862 5.23885C12.0482 4.13645 13.098 3.27701 14.3149 2.75932C15.5319 2.24164 16.8665 2.08674 18.1655 2.31242L14.2655 6.64754C14.1569 6.76829 14.0783 6.914 14.0361 7.07241C13.9939 7.23083 13.9894 7.39733 14.023 7.5579L14.7305 10.9339C14.7709 11.127 14.8649 11.304 15.001 11.4437C15.1372 11.5833 15.3097 11.6797 15.498 11.7212L18.7917 12.4469C18.9482 12.4814 19.1106 12.4768 19.265 12.4335C19.4194 12.3902 19.5615 12.3095 19.6792 12.1982L23.9055 8.19772C24.0739 9.22734 24.0217 10.2822 23.7525 11.2891C23.4833 12.2959 23.0034 13.2305 22.3464 14.0278C21.6894 14.8252 20.8709 15.4661 19.9479 15.9061C19.0249 16.3461 18.0195 16.5746 17.0017 16.5756Z" fill="white"/>
</svg>
